<?xml version="1.0" standalone="no"?>
<!DOCTYPE svg PUBLIC "-//W3C//DTD SVG 20010904//EN"
 "http://www.w3.org/TR/2001/REC-SVG-20010904/DTD/svg10.dtd">
<svg version="1.0" xmlns="http://www.w3.org/2000/svg"
 width="1024.000000pt" height="1024.000000pt" viewBox="0 0 1024.000000 1024.000000"
 preserveAspectRatio="xMidYMid meet">

<g transform="translate(0.000000,1024.000000) scale(0.100000,-0.100000)"
fill="#000000" stroke="none">
<path d="M5053 8390 c-23 -15 -40 -42 -63 -98 -76 -183 -95 -225 -169 -368
-81 -155 -255 -450 -344 -584 -66 -98 -292 -397 -478 -631 -427 -539 -645
-861 -804 -1192 -124 -258 -210 -530 -251 -797 -25 -158 -25 -513 -1 -655 54
-308 163 -586 323 -822 348 -513 884 -842 1529 -939 164 -24 485 -25 645 -1
155 24 311 62 450 109 520 178 988 591 1230 1084 137 278 200 558 200 887 0
243 -33 463 -106 703 -146 484 -367 852 -976 1625 -388 493 -468 604 -616 852
-176 293 -243 423 -362 698 -22 53 -52 107 -65 119 -34 32 -101 37 -142 10z
m96 -535 c35 -81 211 -385 339 -586 128 -201 125 -190 91 -365 -53 -277 -181
-549 -376 -801 -43 -56 -133 -173 -201 -261 -434 -561 -595 -853 -672 -1218
-26 -126 -36 -339 -21 -464 47 -381 247 -742 555 -998 309 -257 695 -412 1029
-412 70 0 107 -4 101 -9 -19 -20 -219 -92 -346 -126 -201 -52 -347 -68 -573
-62 -294 8 -513 54 -770 162 -226 94 -395 205 -564 369 -270 263 -425 533
-511 889 -85 352 -63 698 70 1097 150 451 309 711 861 1410 488 618 742 992
907 1332 26 54 49 98 52 98 3 0 16 -25 29 -55z"/>
</g>
</svg>
